<mxfile host="app.diagrams.net" modified="2023-06-09T08:13:19.121Z" agent="Mozilla/5.0 (Windows NT 10.0; Win64; x64) AppleWebKit/537.36 (KHTML, like Gecko) Chrome/114.0.0.0 Safari/537.36" etag="oiTqroQc_gytUJEv_cb2" version="21.3.8" type="github">
  <diagram name="Page-1" id="3ZwoSl2RGu-xtK9s4rka">
    <mxGraphModel dx="934" dy="506" grid="1" gridSize="10" guides="1" tooltips="1" connect="1" arrows="1" fold="1" page="1" pageScale="1" pageWidth="827" pageHeight="1169" math="0" shadow="0">
      <root>
        <mxCell id="0" />
        <mxCell id="1" parent="0" />
        <mxCell id="XzFIM6wOhW3350Qs6X3E-17" value="Manual entry&lt;br&gt;to mobile app" style="edgeStyle=orthogonalEdgeStyle;rounded=0;orthogonalLoop=1;jettySize=auto;html=1;entryX=-0.1;entryY=0.462;entryDx=0;entryDy=0;entryPerimeter=0;" edge="1" parent="1" source="XzFIM6wOhW3350Qs6X3E-1" target="XzFIM6wOhW3350Qs6X3E-3">
          <mxGeometry y="40" relative="1" as="geometry">
            <Array as="points">
              <mxPoint x="520" y="270" />
              <mxPoint x="520" y="110" />
            </Array>
            <mxPoint as="offset" />
          </mxGeometry>
        </mxCell>
        <mxCell id="XzFIM6wOhW3350Qs6X3E-19" style="edgeStyle=orthogonalEdgeStyle;rounded=0;orthogonalLoop=1;jettySize=auto;html=1;entryX=1;entryY=0.5;entryDx=0;entryDy=0;" edge="1" parent="1" source="XzFIM6wOhW3350Qs6X3E-1" target="XzFIM6wOhW3350Qs6X3E-18">
          <mxGeometry relative="1" as="geometry" />
        </mxCell>
        <mxCell id="XzFIM6wOhW3350Qs6X3E-24" value="Operates" style="edgeStyle=orthogonalEdgeStyle;rounded=0;orthogonalLoop=1;jettySize=auto;html=1;entryX=0.5;entryY=0;entryDx=0;entryDy=0;entryPerimeter=0;" edge="1" parent="1" source="XzFIM6wOhW3350Qs6X3E-1" target="XzFIM6wOhW3350Qs6X3E-22">
          <mxGeometry x="0.1429" y="31" relative="1" as="geometry">
            <mxPoint as="offset" />
          </mxGeometry>
        </mxCell>
        <mxCell id="XzFIM6wOhW3350Qs6X3E-1" value="Employee" style="shape=umlActor;verticalLabelPosition=bottom;verticalAlign=top;html=1;outlineConnect=0;" vertex="1" parent="1">
          <mxGeometry x="414" y="240" width="30" height="60" as="geometry" />
        </mxCell>
        <mxCell id="XzFIM6wOhW3350Qs6X3E-3" value="" style="html=1;verticalLabelPosition=bottom;align=center;labelBackgroundColor=#ffffff;verticalAlign=top;strokeWidth=2;strokeColor=#0080F0;shadow=0;dashed=0;shape=mxgraph.ios7.icons.smartphone;" vertex="1" parent="1">
          <mxGeometry x="560" y="80" width="40" height="65" as="geometry" />
        </mxCell>
        <mxCell id="XzFIM6wOhW3350Qs6X3E-11" style="edgeStyle=orthogonalEdgeStyle;rounded=0;orthogonalLoop=1;jettySize=auto;html=1;exitX=1;exitY=0.5;exitDx=0;exitDy=0;entryX=0;entryY=0.5;entryDx=0;entryDy=0;" edge="1" parent="1" source="XzFIM6wOhW3350Qs6X3E-5" target="XzFIM6wOhW3350Qs6X3E-7">
          <mxGeometry relative="1" as="geometry" />
        </mxCell>
        <mxCell id="XzFIM6wOhW3350Qs6X3E-12" value="Detects weight&lt;br&gt;or volume" style="edgeLabel;html=1;align=center;verticalAlign=middle;resizable=0;points=[];" vertex="1" connectable="0" parent="XzFIM6wOhW3350Qs6X3E-11">
          <mxGeometry x="-0.1944" y="-4" relative="1" as="geometry">
            <mxPoint x="8" y="-24" as="offset" />
          </mxGeometry>
        </mxCell>
        <mxCell id="XzFIM6wOhW3350Qs6X3E-5" value="Food Wastes" style="rounded=1;whiteSpace=wrap;html=1;" vertex="1" parent="1">
          <mxGeometry x="40" y="80" width="120" height="60" as="geometry" />
        </mxCell>
        <mxCell id="XzFIM6wOhW3350Qs6X3E-15" style="edgeStyle=orthogonalEdgeStyle;rounded=0;orthogonalLoop=1;jettySize=auto;html=1;" edge="1" parent="1" source="XzFIM6wOhW3350Qs6X3E-7" target="XzFIM6wOhW3350Qs6X3E-1">
          <mxGeometry relative="1" as="geometry" />
        </mxCell>
        <mxCell id="XzFIM6wOhW3350Qs6X3E-16" value="Information given&lt;br&gt;to employees" style="edgeLabel;html=1;align=center;verticalAlign=middle;resizable=0;points=[];" vertex="1" connectable="0" parent="XzFIM6wOhW3350Qs6X3E-15">
          <mxGeometry x="-0.2599" y="-2" relative="1" as="geometry">
            <mxPoint x="5" y="-22" as="offset" />
          </mxGeometry>
        </mxCell>
        <mxCell id="XzFIM6wOhW3350Qs6X3E-7" value="Weighing Scale" style="shape=image;html=1;verticalAlign=top;verticalLabelPosition=bottom;labelBackgroundColor=#ffffff;imageAspect=0;aspect=fixed;image=https://cdn1.iconfinder.com/data/icons/healthy-life-4/64/weight-scale-sports_and_competition-healthcare_and_medical-weighing_scale_tool-body_scale-128.png" vertex="1" parent="1">
          <mxGeometry x="270" y="77.5" width="65" height="65" as="geometry" />
        </mxCell>
        <mxCell id="XzFIM6wOhW3350Qs6X3E-18" value="Food Inventory" style="rounded=1;whiteSpace=wrap;html=1;" vertex="1" parent="1">
          <mxGeometry x="40" y="240" width="120" height="60" as="geometry" />
        </mxCell>
        <mxCell id="XzFIM6wOhW3350Qs6X3E-20" value="Conduct manual checks" style="text;html=1;align=center;verticalAlign=middle;resizable=0;points=[];autosize=1;strokeColor=none;fillColor=none;" vertex="1" parent="1">
          <mxGeometry x="220" y="240" width="150" height="30" as="geometry" />
        </mxCell>
        <mxCell id="XzFIM6wOhW3350Qs6X3E-23" style="edgeStyle=orthogonalEdgeStyle;rounded=0;orthogonalLoop=1;jettySize=auto;html=1;entryX=0.5;entryY=1;entryDx=0;entryDy=0;" edge="1" parent="1" source="XzFIM6wOhW3350Qs6X3E-22" target="XzFIM6wOhW3350Qs6X3E-18">
          <mxGeometry relative="1" as="geometry" />
        </mxCell>
        <mxCell id="XzFIM6wOhW3350Qs6X3E-22" value="Point of Sale System" style="points=[[0.03,0.03,0],[0.5,0,0],[0.97,0.03,0],[1,0.4,0],[0.97,0.745,0],[0.5,1,0],[0.03,0.745,0],[0,0.4,0]];verticalLabelPosition=bottom;sketch=0;html=1;verticalAlign=top;aspect=fixed;align=center;pointerEvents=1;shape=mxgraph.cisco19.workstation;fillColor=#005073;strokeColor=none;" vertex="1" parent="1">
          <mxGeometry x="404" y="410" width="50" height="40" as="geometry" />
        </mxCell>
        <mxCell id="XzFIM6wOhW3350Qs6X3E-25" value="Integrated to capture &lt;br&gt;real-time sales &lt;br&gt;data and syncs it &lt;br&gt;with inventory levels" style="text;html=1;align=center;verticalAlign=middle;resizable=0;points=[];autosize=1;strokeColor=none;fillColor=none;" vertex="1" parent="1">
          <mxGeometry x="150" y="360" width="130" height="70" as="geometry" />
        </mxCell>
      </root>
    </mxGraphModel>
  </diagram>
</mxfile>
